<svg xmlns="http://www.w3.org/2000/svg" xmlns:vectornator="http://vectornator.io" xmlns:xlink="http://www.w3.org/1999/xlink" stroke-miterlimit="10" style="fill-rule:nonzero;clip-rule:evenodd;stroke-linecap:round;stroke-linejoin:round;" version="1.1" xml:space="preserve" viewBox="25.51 370.27 976.67 196.72">
<defs/>
<g id="Layer-1" vectornator:layerName="Layer 1">
<g fill="#ffffff" opacity="0.0871553" stroke="none">
<path d="M225.712 477.676L225.712 479.726L219.911 479.726L219.911 494.89L217.544 494.89L217.544 479.726L211.744 479.726L211.744 477.676L225.712 477.676Z"/>
<path d="M230.13 482.058C231.021 482.058 231.884 482.267 232.72 482.685C233.556 483.103 234.193 483.644 234.63 484.308C235.052 484.941 235.333 485.679 235.474 486.523C235.599 487.101 235.661 488.023 235.661 489.289L226.462 489.289C226.501 490.562 226.802 491.584 227.365 492.353C227.927 493.123 228.798 493.508 229.978 493.508C231.079 493.508 231.958 493.144 232.615 492.418C232.99 491.996 233.255 491.508 233.411 490.953L235.486 490.953C235.431 491.414 235.249 491.927 234.941 492.494C234.632 493.06 234.286 493.523 233.904 493.883C233.263 494.508 232.47 494.929 231.525 495.148C231.017 495.273 230.443 495.336 229.802 495.336C228.24 495.336 226.915 494.767 225.829 493.631C224.744 492.494 224.201 490.902 224.201 488.855C224.201 486.84 224.747 485.203 225.841 483.945C226.935 482.687 228.365 482.058 230.13 482.058ZM233.494 487.613C233.408 486.699 233.208 485.968 232.896 485.422C232.318 484.406 231.353 483.898 230.001 483.898C229.033 483.898 228.22 484.248 227.564 484.947C226.908 485.646 226.56 486.535 226.521 487.613L233.494 487.613Z"/>
<path d="M237.056 482.34L239.786 482.34L242.669 486.758L245.587 482.34L248.154 482.398L243.923 488.457L248.341 494.89L245.646 494.89L242.529 490.179L239.505 494.89L236.833 494.89L241.251 488.457L237.056 482.34Z"/>
<path d="M250.673 478.836L252.806 478.836L252.806 482.34L254.81 482.34L254.81 484.062L252.806 484.062L252.806 492.254C252.806 492.691 252.954 492.984 253.251 493.133C253.415 493.218 253.689 493.261 254.072 493.261C254.173 493.261 254.283 493.259 254.4 493.256C254.517 493.252 254.654 493.242 254.81 493.226L254.81 494.89C254.568 494.961 254.316 495.011 254.054 495.043C253.792 495.074 253.509 495.09 253.204 495.09C252.22 495.09 251.552 494.838 251.201 494.334C250.849 493.83 250.673 493.176 250.673 492.371L250.673 484.062L248.974 484.062L248.974 482.34L250.673 482.34L250.673 478.836Z"/>
</g>
<g fill="#000000" opacity="0.729335" stroke="none">
<path d="M25.5074 566.994L46.7459 566.994L111.789 370.272L90.5503 370.272L25.5074 566.994Z" fill="#000000"/>
<path d="M111.385 566.994L132.624 566.994L197.667 370.272L176.428 370.272L111.385 566.994Z" fill="#000000"/>
<path d="M249.829 496.111L277.837 411.555L278.368 411.555L306.376 496.111L249.829 496.111ZM329.739 565.401L360.667 565.401L290.315 371.865L265.758 371.865L195.405 565.401L226.466 565.401L241.333 522.128L314.739 522.128L329.739 565.401Z" fill="#000000"/>
<path d="M374.202 565.401L401.944 565.401L401.944 525.712L423.714 501.022L423.714 501.022L460.35 565.401L495.128 565.401L441.103 481.376L488.624 427.616L455.439 427.616L402.475 492.261L401.944 492.261L401.944 371.865L374.202 371.865L374.202 565.401Z" fill="#000000"/>
<path d="M514.769 523.322L495.389 542.304C513.353 558.764 533.574 566.994 556.051 566.994C572.6 566.817 586.183 563.012 596.803 555.578C607.51 548.322 612.953 538.012 613.13 524.65C613.13 513.234 610.165 503.81 604.236 496.376C597.865 488.766 587.511 484.429 573.175 483.367L550.343 481.642C543.618 480.934 538.928 479.297 536.273 476.73C533.353 474.43 531.981 471.73 532.158 468.633C532.158 463.766 533.972 459.784 537.6 456.687C541.052 453.589 547.113 452.041 555.786 452.041C563.396 452.041 570.122 453.147 575.962 455.359C581.891 457.837 587.511 460.978 592.82 464.784L592.82 464.784L609.944 444.74C603.218 438.899 595.608 434.253 587.113 430.802C582.688 429.209 577.953 427.97 572.909 427.085C567.865 426.289 562.157 425.891 555.786 425.891C541.096 425.891 528.972 429.43 519.415 436.51C509.592 443.589 504.592 454.209 504.415 468.368C504.592 480.137 508.397 489.297 515.831 495.845C523.087 502.571 532.512 506.464 544.105 507.526L568.529 509.65C573.662 509.827 577.776 510.933 580.874 512.969C583.883 514.915 585.387 518.367 585.387 523.322C585.387 528.898 582.865 533.234 577.821 536.331C572.777 539.428 566.272 540.977 558.308 540.977C540.521 540.977 526.008 535.092 514.769 523.322Z" fill="#000000"/>
<path d="M636.487 565.401L664.23 565.401L664.23 483.367C664.23 473.722 666.84 466.377 672.061 461.332C677.194 456.2 683.743 453.633 691.707 453.633C699.672 453.633 706.176 456.2 711.22 461.332C716.353 466.377 718.919 473.722 718.919 483.367L718.919 565.401L746.662 565.401L746.662 473.81C746.219 458.058 741.308 446.112 731.928 437.97C722.459 429.917 712.016 425.891 700.601 425.891C685.822 425.891 673.876 431.333 664.761 442.218L664.23 442.218L664.23 371.865L636.487 371.865L636.487 565.401Z" fill="#000000"/>
<path d="M850.194 565.401L877.937 565.401L877.937 471.288C877.76 454.474 872.495 442.616 862.141 435.713C851.787 428.988 837.938 425.714 820.593 425.891C800.063 425.537 784.532 432.262 774.001 446.067L795.771 462.66L795.771 462.66C798.16 458.678 801.434 455.846 805.593 454.164C809.576 452.749 815.018 452.041 821.921 452.041C840.947 451.687 850.371 457.571 850.194 469.695L850.194 484.164L811.832 484.164C797.142 484.341 785.992 488.323 778.382 496.111C770.771 503.721 766.966 513.323 766.966 524.915C766.966 537.039 771.346 546.995 780.107 554.782C788.426 562.746 800.284 566.817 815.682 566.994C825.062 566.994 832.407 565.844 837.717 563.543C843.115 561.331 847.097 557.879 849.663 553.189L850.194 553.189L850.194 565.401ZM850.194 516.951C850.194 527.305 848.026 533.942 843.69 536.862C838.911 539.782 830.726 541.154 819.133 540.977C809.93 540.977 803.337 539.163 799.355 535.535C795.195 532.26 793.116 528.278 793.116 523.588C792.939 512.88 800.903 507.349 817.009 506.995L850.194 506.995L850.194 516.951Z" fill="#000000"/>
<path d="M909.126 565.401L936.869 565.401L936.869 482.438C937.046 472.35 939.966 465.049 945.63 460.536C950.674 455.934 956.736 453.633 963.815 453.633C970.098 453.633 976.16 455.934 982.001 460.536L982.001 460.536L1002.18 436.51C993.947 429.607 984.301 426.068 973.24 425.891C958.461 425.891 946.515 431.333 937.4 442.218L936.869 442.218L936.869 427.616L909.126 427.616L909.126 565.401Z" fill="#000000"/>
</g>
</g>
</svg>