<?xml version="1.0" encoding="UTF-8" standalone="no"?>
<!DOCTYPE svg PUBLIC "-//W3C//DTD SVG 1.1//EN" "http://www.w3.org/Graphics/SVG/1.1/DTD/svg11.dtd">
<!-- Created with Vectornator (http://vectornator.io/) -->
<svg height="100%" stroke-miterlimit="10" style="fill-rule:nonzero;clip-rule:evenodd;stroke-linecap:round;stroke-linejoin:round;" version="1.1" viewBox="0 0 1024 1024" width="100%" xml:space="preserve" xmlns="http://www.w3.org/2000/svg" xmlns:vectornator="http://vectornator.io" xmlns:xlink="http://www.w3.org/1999/xlink">
<defs>
<filter color-interpolation-filters="sRGB" filterUnits="userSpaceOnUse" height="961.814" id="Filter" width="991.534" x="16.0115" y="84.1212">
<feDropShadow dx="-0.000251011" dy="68.3356" flood-color="#000000" flood-opacity="0.333" in="SourceGraphic" result="Shadow" stdDeviation="15.4457"/>
</filter>
</defs>
<clipPath id="ArtboardFrame">
<rect height="1024" width="1024" x="0" y="0"/>
</clipPath>
<g clip-path="url(#ArtboardFrame)" id="Layer-1" vectornator:layerName="Layer 1">
<g filter="url(#Filter)" vectornator:shadowAngle="1.5708" vectornator:shadowColor="#000000" vectornator:shadowOffset="68.3356" vectornator:shadowOpacity="0.333" vectornator:shadowRadius="30.8914">
<path d="M968.931 84.9723L968.782 179.067L766.579 178.747L765.377 938.179L737.349 938.135L660.076 850.591L660.689 462.867C597.474 488.571 542.287 501.385 495.128 501.311C422.165 501.195 349.463 477.278 277.021 429.56C165.292 468.089 109.367 525.614 109.245 602.136C109.194 634.613 120.497 660.768 143.156 680.602C165.814 700.436 199.165 710.387 243.21 710.457C274.797 710.507 304.61 706.995 332.65 699.921C332.692 673.227 341.625 650.886 359.45 632.896C377.274 614.906 398.643 605.93 423.557 605.97C447.581 606.008 467.809 615.271 484.241 633.76C500.673 652.25 508.869 673.951 508.829 698.865C508.734 758.926 466.632 797.12 382.521 813.448C398.036 849.064 423.779 887.588 459.749 929.02L431.705 938.986C391.728 899.327 364.877 858.132 351.153 815.4C293.318 814.419 240.511 799.098 192.732 769.437C144.953 739.776 110.082 706.02 88.1197 668.169C66.1574 630.318 54.9928 586.701 54.6261 537.317C54.757 454.567 98.0027 397.022 184.363 364.681C98.1471 305.819 55.0819 249.249 55.1677 194.972C55.2248 158.936 68.6143 131.93 95.3364 113.954C122.058 95.9781 153.66 87.019 190.141 87.0767C240.859 87.1569 289.547 105.03 336.204 140.695C382.861 176.36 406.143 223.778 406.05 282.949C406 314.537 399.176 339.217 385.579 356.992C371.981 374.766 346.704 393.189 309.748 412.261C351.083 437.685 390.213 450.427 427.14 450.485C475.633 450.562 526.714 432.18 580.382 395.338C634.05 358.497 660.923 315.385 661.001 266.002L661.139 178.58L498.976 178.324L431.056 84.1212L968.931 84.9723ZM219.09 348.72C301.88 323.492 343.319 283.517 343.405 228.795C343.446 203.437 332.802 182.176 311.474 165.014C290.146 147.852 265.468 139.248 237.44 139.204C206.742 139.156 183.927 148.573 168.993 167.458C154.059 186.342 146.574 207.129 146.538 229.819C146.475 269.859 170.659 309.493 219.09 348.72Z" fill="#006a6a" fill-rule="nonzero" opacity="1" stroke="none"/>
</g>
</g>
</svg>
